<mxfile host="app.diagrams.net" modified="2023-03-26T07:08:59.293Z" agent="Mozilla/5.0 (Windows NT 10.0; Win64; x64) AppleWebKit/537.36 (KHTML, like Gecko) Chrome/111.0.0.0 Safari/537.36" etag="3tojU_jkD_55LrcCVtZe" version="21.1.1" type="device">
  <diagram id="dX7Dphyso45SB9-RoEhv" name="Page-1">
    <mxGraphModel dx="913" dy="448" grid="1" gridSize="10" guides="1" tooltips="1" connect="1" arrows="1" fold="1" page="1" pageScale="1" pageWidth="827" pageHeight="1169" math="0" shadow="0">
      <root>
        <mxCell id="0" />
        <mxCell id="1" parent="0" />
        <mxCell id="nfxZPmU7g6QgWNAvG-ER-2" value="" style="whiteSpace=wrap;html=1;aspect=fixed;strokeWidth=5;strokeColor=#FFFFFF;fillColor=#000000;fontFamily=xkcd;" parent="1" vertex="1">
          <mxGeometry x="210" y="90" width="600" height="600" as="geometry" />
        </mxCell>
        <mxCell id="S3z5AZ7pnjP_rB98LnaU-18" value="" style="endArrow=none;html=1;rounded=0;strokeColor=#FFFFFF;fontColor=#FFFFFF;" edge="1" parent="1" source="S3z5AZ7pnjP_rB98LnaU-33">
          <mxGeometry width="50" height="50" relative="1" as="geometry">
            <mxPoint x="307" y="537" as="sourcePoint" />
            <mxPoint x="677" y="227" as="targetPoint" />
          </mxGeometry>
        </mxCell>
        <mxCell id="LCQen1SqzMLDeu4XuyOP-2" value="" style="edgeStyle=orthogonalEdgeStyle;rounded=0;orthogonalLoop=1;jettySize=auto;html=1;fontFamily=xkcd;" parent="1" source="8b6ggLF4gSHIukh4vJdm-18" edge="1">
          <mxGeometry relative="1" as="geometry">
            <mxPoint x="510" y="230" as="targetPoint" />
          </mxGeometry>
        </mxCell>
        <mxCell id="8b6ggLF4gSHIukh4vJdm-18" value="&lt;font face=&quot;xkcd&quot;&gt;&lt;span style=&quot;font-size: 40px;&quot;&gt;Moore&#39;s LAW&lt;/span&gt;&lt;br&gt;&lt;/font&gt;" style="text;html=1;strokeColor=none;fillColor=none;align=center;verticalAlign=middle;whiteSpace=wrap;rounded=0;fontColor=#FFFFFF;fontFamily=xkcd;" parent="1" vertex="1">
          <mxGeometry x="215" y="130" width="590" height="20" as="geometry" />
        </mxCell>
        <mxCell id="8b6ggLF4gSHIukh4vJdm-24" value="&lt;span style=&quot;text-align: justify;&quot;&gt;&lt;font face=&quot;xkcd&quot;&gt;&lt;span style=&quot;font-size: 18px;&quot;&gt;the number of transistors in a chip doubles every 2 years&lt;/span&gt;&lt;/font&gt;&lt;/span&gt;&lt;font face=&quot;xkcd&quot;&gt;&lt;br&gt;&lt;/font&gt;" style="text;html=1;strokeColor=none;fillColor=none;align=center;verticalAlign=middle;whiteSpace=wrap;rounded=0;fontColor=#FFFFFF;fontFamily=xkcd;" parent="1" vertex="1">
          <mxGeometry x="210" y="170" width="600" height="20" as="geometry" />
        </mxCell>
        <mxCell id="8b6ggLF4gSHIukh4vJdm-30" value="" style="endArrow=none;dashed=1;html=1;strokeWidth=2;labelBackgroundColor=none;fontColor=#FFFFFF;strokeColor=#FFFFFF;fontFamily=xkcd;" parent="1" edge="1">
          <mxGeometry width="50" height="50" relative="1" as="geometry">
            <mxPoint x="796.5" y="210" as="sourcePoint" />
            <mxPoint x="221.5" y="210" as="targetPoint" />
          </mxGeometry>
        </mxCell>
        <mxCell id="k-dpR7HA_-HZ3Fbqk2lw-16" value="" style="endArrow=none;dashed=1;html=1;strokeWidth=2;labelBackgroundColor=none;fontColor=#FFFFFF;strokeColor=#FFFFFF;fontFamily=xkcd;" parent="1" edge="1">
          <mxGeometry width="50" height="50" relative="1" as="geometry">
            <mxPoint x="797.5" y="590" as="sourcePoint" />
            <mxPoint x="222.5" y="590" as="targetPoint" />
          </mxGeometry>
        </mxCell>
        <mxCell id="k-dpR7HA_-HZ3Fbqk2lw-17" value="&lt;font face=&quot;xkcd&quot;&gt;&lt;span style=&quot;font-size: 14px&quot;&gt;side note&lt;br&gt;&lt;/span&gt;&lt;/font&gt;&lt;font face=&quot;xkcd&quot;&gt;&lt;span style=&quot;font-size: 18px;&quot;&gt;Moore died but his law still has scope&lt;/span&gt;&lt;br&gt;&lt;/font&gt;" style="text;html=1;strokeColor=none;fillColor=none;align=center;verticalAlign=middle;whiteSpace=wrap;rounded=0;fontColor=#FFFFFF;fontFamily=xkcd;" parent="1" vertex="1">
          <mxGeometry x="220" y="600" width="580" height="70" as="geometry" />
        </mxCell>
        <mxCell id="euaHSMH8fYii958cPEId-22" style="edgeStyle=orthogonalEdgeStyle;rounded=0;orthogonalLoop=1;jettySize=auto;html=1;exitX=0.5;exitY=1;exitDx=0;exitDy=0;strokeWidth=2;fontFamily=xkcd;" parent="1" edge="1">
          <mxGeometry relative="1" as="geometry">
            <mxPoint x="661" y="451" as="sourcePoint" />
            <mxPoint x="661" y="451" as="targetPoint" />
          </mxGeometry>
        </mxCell>
        <mxCell id="pKVuHFSoDqtFi99w7tCS-15" value="&lt;font face=&quot;xkcd&quot;&gt;&lt;span style=&quot;font-size: 14px&quot;&gt;the watermark is not moored&lt;br&gt;&lt;/span&gt;#thecontentwriter #sbenstewart&lt;br&gt;&lt;/font&gt;" style="text;html=1;strokeColor=none;fillColor=none;align=center;verticalAlign=middle;whiteSpace=wrap;rounded=0;rotation=-90;fontColor=#FFFFFF;fontFamily=xkcd;" parent="1" vertex="1">
          <mxGeometry x="630" y="388" width="290" height="20" as="geometry" />
        </mxCell>
        <mxCell id="S3z5AZ7pnjP_rB98LnaU-1" value="" style="endArrow=none;html=1;rounded=0;strokeWidth=2;strokeColor=#FFFFFF;fontColor=#FFFFFF;" edge="1" parent="1">
          <mxGeometry width="50" height="50" relative="1" as="geometry">
            <mxPoint x="307" y="549" as="sourcePoint" />
            <mxPoint x="307" y="239" as="targetPoint" />
          </mxGeometry>
        </mxCell>
        <mxCell id="S3z5AZ7pnjP_rB98LnaU-2" value="" style="endArrow=none;html=1;rounded=0;strokeWidth=2;strokeColor=#FFFFFF;fontColor=#FFFFFF;" edge="1" parent="1">
          <mxGeometry width="50" height="50" relative="1" as="geometry">
            <mxPoint x="307" y="548" as="sourcePoint" />
            <mxPoint x="677" y="548" as="targetPoint" />
          </mxGeometry>
        </mxCell>
        <mxCell id="S3z5AZ7pnjP_rB98LnaU-3" value="&lt;div style=&quot;text-align: left;&quot;&gt;&lt;span style=&quot;font-size: 14px;&quot;&gt;1970&lt;/span&gt;&lt;/div&gt;" style="text;html=1;strokeColor=none;fillColor=none;align=center;verticalAlign=middle;whiteSpace=wrap;rounded=0;fontColor=#FFFFFF;fontFamily=xkcd;" vertex="1" parent="1">
          <mxGeometry x="297" y="549" width="50" height="20" as="geometry" />
        </mxCell>
        <mxCell id="S3z5AZ7pnjP_rB98LnaU-4" value="&lt;div style=&quot;text-align: left;&quot;&gt;&lt;span style=&quot;font-size: 14px;&quot;&gt;1980&lt;/span&gt;&lt;/div&gt;" style="text;html=1;strokeColor=none;fillColor=none;align=center;verticalAlign=middle;whiteSpace=wrap;rounded=0;fontColor=#FFFFFF;fontFamily=xkcd;" vertex="1" parent="1">
          <mxGeometry x="347" y="548" width="50" height="20" as="geometry" />
        </mxCell>
        <mxCell id="S3z5AZ7pnjP_rB98LnaU-5" value="&lt;div style=&quot;text-align: left;&quot;&gt;&lt;span style=&quot;font-size: 14px;&quot;&gt;1990&lt;/span&gt;&lt;/div&gt;" style="text;html=1;strokeColor=none;fillColor=none;align=center;verticalAlign=middle;whiteSpace=wrap;rounded=0;fontColor=#FFFFFF;fontFamily=xkcd;" vertex="1" parent="1">
          <mxGeometry x="397" y="548" width="50" height="20" as="geometry" />
        </mxCell>
        <mxCell id="S3z5AZ7pnjP_rB98LnaU-6" value="&lt;div style=&quot;text-align: left;&quot;&gt;&lt;span style=&quot;font-size: 14px;&quot;&gt;2000&lt;/span&gt;&lt;/div&gt;" style="text;html=1;strokeColor=none;fillColor=none;align=center;verticalAlign=middle;whiteSpace=wrap;rounded=0;fontColor=#FFFFFF;fontFamily=xkcd;" vertex="1" parent="1">
          <mxGeometry x="447" y="548" width="50" height="20" as="geometry" />
        </mxCell>
        <mxCell id="S3z5AZ7pnjP_rB98LnaU-7" value="&lt;div style=&quot;text-align: left;&quot;&gt;&lt;span style=&quot;font-size: 14px;&quot;&gt;2010&lt;/span&gt;&lt;/div&gt;" style="text;html=1;strokeColor=none;fillColor=none;align=center;verticalAlign=middle;whiteSpace=wrap;rounded=0;fontColor=#FFFFFF;fontFamily=xkcd;" vertex="1" parent="1">
          <mxGeometry x="497" y="548" width="50" height="20" as="geometry" />
        </mxCell>
        <mxCell id="S3z5AZ7pnjP_rB98LnaU-8" value="&lt;div style=&quot;text-align: left;&quot;&gt;&lt;span style=&quot;font-size: 14px;&quot;&gt;2020&lt;/span&gt;&lt;/div&gt;" style="text;html=1;strokeColor=none;fillColor=none;align=center;verticalAlign=middle;whiteSpace=wrap;rounded=0;fontColor=#FFFFFF;fontFamily=xkcd;" vertex="1" parent="1">
          <mxGeometry x="547" y="548" width="50" height="20" as="geometry" />
        </mxCell>
        <mxCell id="S3z5AZ7pnjP_rB98LnaU-10" value="&lt;div style=&quot;text-align: left;&quot;&gt;&lt;span style=&quot;font-size: 14px;&quot;&gt;and beyond&lt;/span&gt;&lt;/div&gt;" style="text;html=1;strokeColor=none;fillColor=none;align=center;verticalAlign=middle;whiteSpace=wrap;rounded=0;fontColor=#FFFFFF;fontFamily=xkcd;" vertex="1" parent="1">
          <mxGeometry x="587" y="548" width="100" height="20" as="geometry" />
        </mxCell>
        <mxCell id="S3z5AZ7pnjP_rB98LnaU-11" value="" style="ellipse;whiteSpace=wrap;html=1;aspect=fixed;fontFamily=xkcd;fillColor=#1ba1e2;strokeWidth=0;strokeColor=#006EAF;fontColor=#ffffff;" vertex="1" parent="1">
          <mxGeometry x="312" y="507" width="20" height="20" as="geometry" />
        </mxCell>
        <mxCell id="S3z5AZ7pnjP_rB98LnaU-13" value="" style="ellipse;whiteSpace=wrap;html=1;aspect=fixed;fontFamily=xkcd;fillColor=#1ba1e2;strokeColor=#006EAF;fontColor=#ffffff;" vertex="1" parent="1">
          <mxGeometry x="362" y="473" width="20" height="20" as="geometry" />
        </mxCell>
        <mxCell id="S3z5AZ7pnjP_rB98LnaU-14" value="" style="ellipse;whiteSpace=wrap;html=1;aspect=fixed;fontFamily=xkcd;fillColor=#1ba1e2;strokeColor=#006EAF;fontColor=#ffffff;" vertex="1" parent="1">
          <mxGeometry x="407" y="427" width="20" height="20" as="geometry" />
        </mxCell>
        <mxCell id="S3z5AZ7pnjP_rB98LnaU-15" value="" style="ellipse;whiteSpace=wrap;html=1;aspect=fixed;fontFamily=xkcd;fillColor=#1ba1e2;strokeColor=#006EAF;fontColor=#ffffff;" vertex="1" parent="1">
          <mxGeometry x="457" y="390" width="20" height="20" as="geometry" />
        </mxCell>
        <mxCell id="S3z5AZ7pnjP_rB98LnaU-16" value="" style="ellipse;whiteSpace=wrap;html=1;aspect=fixed;fontFamily=xkcd;fillColor=#a20025;strokeColor=#6F0000;fontColor=#ffffff;" vertex="1" parent="1">
          <mxGeometry x="512" y="347" width="20" height="20" as="geometry" />
        </mxCell>
        <mxCell id="S3z5AZ7pnjP_rB98LnaU-17" value="" style="ellipse;whiteSpace=wrap;html=1;aspect=fixed;fontFamily=xkcd;fillColor=#a20025;strokeColor=#6F0000;fontColor=#ffffff;" vertex="1" parent="1">
          <mxGeometry x="561" y="327" width="20" height="20" as="geometry" />
        </mxCell>
        <mxCell id="S3z5AZ7pnjP_rB98LnaU-19" value="&lt;div style=&quot;text-align: left;&quot;&gt;&lt;span style=&quot;font-size: 14px;&quot;&gt;number of transistors per chip&lt;/span&gt;&lt;/div&gt;" style="text;html=1;strokeColor=none;fillColor=none;align=center;verticalAlign=middle;whiteSpace=wrap;rounded=0;fontColor=#FFFFFF;fontFamily=xkcd;rotation=-90;" vertex="1" parent="1">
          <mxGeometry x="80" y="385" width="350" height="20" as="geometry" />
        </mxCell>
        <mxCell id="S3z5AZ7pnjP_rB98LnaU-20" value="&lt;div style=&quot;text-align: left;&quot;&gt;&lt;span style=&quot;font-size: 14px;&quot;&gt;10&amp;nbsp;&lt;sup&gt;4&lt;/sup&gt;&lt;/span&gt;&lt;/div&gt;" style="text;html=1;strokeColor=none;fillColor=none;align=center;verticalAlign=middle;whiteSpace=wrap;rounded=0;fontColor=#FFFFFF;fontFamily=xkcd;" vertex="1" parent="1">
          <mxGeometry x="260" y="497" width="50" height="20" as="geometry" />
        </mxCell>
        <mxCell id="S3z5AZ7pnjP_rB98LnaU-21" value="&lt;div style=&quot;text-align: left;&quot;&gt;&lt;span style=&quot;font-size: 14px;&quot;&gt;10 &lt;/span&gt;&lt;span style=&quot;font-size: 11.6667px;&quot;&gt;&lt;sup&gt;5&lt;/sup&gt;&lt;/span&gt;&lt;/div&gt;" style="text;html=1;strokeColor=none;fillColor=none;align=center;verticalAlign=middle;whiteSpace=wrap;rounded=0;fontColor=#FFFFFF;fontFamily=xkcd;" vertex="1" parent="1">
          <mxGeometry x="260" y="457" width="50" height="20" as="geometry" />
        </mxCell>
        <mxCell id="S3z5AZ7pnjP_rB98LnaU-22" value="&lt;div style=&quot;text-align: left;&quot;&gt;&lt;span style=&quot;font-size: 14px;&quot;&gt;10 &lt;/span&gt;&lt;span style=&quot;font-size: 11.6667px;&quot;&gt;&lt;sup&gt;6&lt;/sup&gt;&lt;/span&gt;&lt;/div&gt;" style="text;html=1;strokeColor=none;fillColor=none;align=center;verticalAlign=middle;whiteSpace=wrap;rounded=0;fontColor=#FFFFFF;fontFamily=xkcd;" vertex="1" parent="1">
          <mxGeometry x="260" y="417" width="50" height="20" as="geometry" />
        </mxCell>
        <mxCell id="S3z5AZ7pnjP_rB98LnaU-23" value="&lt;div style=&quot;text-align: left;&quot;&gt;&lt;span style=&quot;font-size: 14px;&quot;&gt;10 &lt;/span&gt;&lt;span style=&quot;font-size: 11.6667px;&quot;&gt;&lt;sup&gt;7&lt;/sup&gt;&lt;/span&gt;&lt;/div&gt;" style="text;html=1;strokeColor=none;fillColor=none;align=center;verticalAlign=middle;whiteSpace=wrap;rounded=0;fontColor=#FFFFFF;fontFamily=xkcd;" vertex="1" parent="1">
          <mxGeometry x="260" y="377" width="50" height="20" as="geometry" />
        </mxCell>
        <mxCell id="S3z5AZ7pnjP_rB98LnaU-24" value="&lt;div style=&quot;text-align: left;&quot;&gt;&lt;span style=&quot;font-size: 14px;&quot;&gt;10 &lt;/span&gt;&lt;span style=&quot;font-size: 11.6667px;&quot;&gt;&lt;sup&gt;8&lt;/sup&gt;&lt;/span&gt;&lt;/div&gt;" style="text;html=1;strokeColor=none;fillColor=none;align=center;verticalAlign=middle;whiteSpace=wrap;rounded=0;fontColor=#FFFFFF;fontFamily=xkcd;" vertex="1" parent="1">
          <mxGeometry x="260" y="337" width="50" height="20" as="geometry" />
        </mxCell>
        <mxCell id="S3z5AZ7pnjP_rB98LnaU-25" value="&lt;div style=&quot;text-align: left;&quot;&gt;&lt;span style=&quot;font-size: 14px;&quot;&gt;10 &lt;/span&gt;&lt;span style=&quot;font-size: 11.6667px;&quot;&gt;&lt;sup&gt;9&lt;/sup&gt;&lt;/span&gt;&lt;/div&gt;" style="text;html=1;strokeColor=none;fillColor=none;align=center;verticalAlign=middle;whiteSpace=wrap;rounded=0;fontColor=#FFFFFF;fontFamily=xkcd;" vertex="1" parent="1">
          <mxGeometry x="260" y="297" width="50" height="20" as="geometry" />
        </mxCell>
        <mxCell id="S3z5AZ7pnjP_rB98LnaU-26" value="&lt;div style=&quot;text-align: left;&quot;&gt;&lt;span style=&quot;font-size: 14px;&quot;&gt;10 &lt;/span&gt;&lt;span style=&quot;font-size: 11.6667px;&quot;&gt;&lt;sup&gt;10&lt;/sup&gt;&lt;/span&gt;&lt;/div&gt;" style="text;html=1;strokeColor=none;fillColor=none;align=center;verticalAlign=middle;whiteSpace=wrap;rounded=0;fontColor=#FFFFFF;fontFamily=xkcd;" vertex="1" parent="1">
          <mxGeometry x="260" y="257" width="50" height="20" as="geometry" />
        </mxCell>
        <mxCell id="S3z5AZ7pnjP_rB98LnaU-27" value="" style="ellipse;whiteSpace=wrap;html=1;aspect=fixed;fontFamily=xkcd;fillColor=#1ba1e2;strokeWidth=0;strokeColor=#006EAF;fontColor=#ffffff;" vertex="1" parent="1">
          <mxGeometry x="332" y="230" width="20" height="20" as="geometry" />
        </mxCell>
        <mxCell id="S3z5AZ7pnjP_rB98LnaU-28" value="" style="ellipse;whiteSpace=wrap;html=1;aspect=fixed;fontFamily=xkcd;fillColor=#a20025;strokeColor=#6F0000;fontColor=#ffffff;" vertex="1" parent="1">
          <mxGeometry x="332" y="257" width="20" height="20" as="geometry" />
        </mxCell>
        <mxCell id="S3z5AZ7pnjP_rB98LnaU-29" value="&lt;div style=&quot;&quot;&gt;&lt;span style=&quot;font-size: 14px;&quot;&gt;intel chip&lt;/span&gt;&lt;/div&gt;" style="text;html=1;strokeColor=none;fillColor=none;align=left;verticalAlign=middle;whiteSpace=wrap;rounded=0;fontColor=#FFFFFF;fontFamily=xkcd;" vertex="1" parent="1">
          <mxGeometry x="356" y="228" width="93" height="20" as="geometry" />
        </mxCell>
        <mxCell id="S3z5AZ7pnjP_rB98LnaU-30" value="&lt;div style=&quot;&quot;&gt;&lt;span style=&quot;font-size: 14px;&quot;&gt;AMD chip&lt;/span&gt;&lt;/div&gt;" style="text;html=1;strokeColor=none;fillColor=none;align=left;verticalAlign=middle;whiteSpace=wrap;rounded=0;fontColor=#FFFFFF;fontFamily=xkcd;" vertex="1" parent="1">
          <mxGeometry x="356" y="253" width="93" height="20" as="geometry" />
        </mxCell>
        <mxCell id="S3z5AZ7pnjP_rB98LnaU-31" value="" style="endArrow=none;html=1;rounded=0;strokeWidth=2;strokeColor=#FFFFFF;fontColor=#FFFFFF;dashed=1;" edge="1" parent="1">
          <mxGeometry width="50" height="50" relative="1" as="geometry">
            <mxPoint x="592" y="547" as="sourcePoint" />
            <mxPoint x="592" y="237" as="targetPoint" />
          </mxGeometry>
        </mxCell>
        <mxCell id="S3z5AZ7pnjP_rB98LnaU-32" value="&lt;div style=&quot;text-align: left;&quot;&gt;&lt;span style=&quot;font-size: 14px;&quot;&gt;Moore died&lt;/span&gt;&lt;/div&gt;" style="text;html=1;strokeColor=none;fillColor=none;align=center;verticalAlign=middle;whiteSpace=wrap;rounded=0;fontColor=#FFFFFF;fontFamily=xkcd;rotation=-90;" vertex="1" parent="1">
          <mxGeometry x="532" y="493" width="93" height="20" as="geometry" />
        </mxCell>
        <mxCell id="S3z5AZ7pnjP_rB98LnaU-34" value="" style="endArrow=none;html=1;rounded=0;strokeColor=#FFFFFF;fontColor=#FFFFFF;" edge="1" parent="1" target="S3z5AZ7pnjP_rB98LnaU-33">
          <mxGeometry width="50" height="50" relative="1" as="geometry">
            <mxPoint x="307" y="537" as="sourcePoint" />
            <mxPoint x="677" y="227" as="targetPoint" />
          </mxGeometry>
        </mxCell>
        <mxCell id="S3z5AZ7pnjP_rB98LnaU-33" value="" style="ellipse;whiteSpace=wrap;html=1;aspect=fixed;fontFamily=xkcd;fillColor=#60a917;strokeColor=#2D7600;fontColor=#ffffff;" vertex="1" parent="1">
          <mxGeometry x="625" y="250" width="20" height="20" as="geometry" />
        </mxCell>
        <mxCell id="S3z5AZ7pnjP_rB98LnaU-35" value="&lt;div style=&quot;&quot;&gt;&lt;span style=&quot;font-size: 14px;&quot;&gt;with A.I. GPU&lt;/span&gt;&lt;font style=&quot;font-size: 9px;&quot;&gt;s&lt;/font&gt;&lt;/div&gt;&lt;div style=&quot;&quot;&gt;&lt;span style=&quot;font-size: 14px;&quot;&gt;Hopefully&lt;/span&gt;&lt;/div&gt;" style="text;html=1;strokeColor=none;fillColor=none;align=left;verticalAlign=middle;whiteSpace=wrap;rounded=0;fontColor=#FFFFFF;fontFamily=xkcd;" vertex="1" parent="1">
          <mxGeometry x="620" y="266" width="93" height="43" as="geometry" />
        </mxCell>
      </root>
    </mxGraphModel>
  </diagram>
</mxfile>
